<?xml version="1.0" encoding="utf-8"?>
<!-- Generator: Adobe Illustrator 27.2.0, SVG Export Plug-In . SVG Version: 6.00 Build 0)  -->
<svg version="1.1" id="Camada_1" xmlns="http://www.w3.org/2000/svg" xmlns:xlink="http://www.w3.org/1999/xlink" x="0px" y="0px"
	 viewBox="0 0 128 128" style="enable-background:new 0 0 128 128;" xml:space="preserve">
<style type="text/css">
	.st0{fill:#659AD2;}
	.st1{fill:#004482;}
	.st2{fill:#00599C;}
	.st3{fill:#FFFFFF;}
</style>
<path class="st0" d="M115.4,30.7L67.1,2.9c-0.8-0.5-1.9-0.7-3.1-0.7c-1.2,0-2.3,0.3-3.1,0.7l-48,27.9c-1.7,1-2.9,3.5-2.9,5.4v55.7
	c0,1.1,0.2,2.4,1,3.5l106.8-62C117.2,32.2,116.3,31.3,115.4,30.7z"/>
<path class="st1" d="M10.7,95.3c0.5,0.8,1.2,1.5,1.9,1.9l48.2,27.9c0.8,0.5,1.9,0.7,3.1,0.7c1.2,0,2.3-0.3,3.1-0.7l48-27.9
	c1.7-1,2.9-3.5,2.9-5.4V36.1c0-0.9-0.1-1.9-0.6-2.8C117.3,33.3,10.7,95.3,10.7,95.3z"/>
<polygon class="st2" points="65.6,63.3 117.8,93.4 117.8,33.1 "/>
<path class="st3" d="M85.3,76.1C81.1,83.5,73.1,88.5,64,88.5c-13.5,0-24.5-11-24.5-24.5s11-24.5,24.5-24.5c9.1,0,17.1,5,21.3,12.5
	l13-7.5c-6.8-11.9-19.6-20-34.3-20c-21.8,0-39.5,17.7-39.5,39.5s17.7,39.5,39.5,39.5c14.6,0,27.4-8,34.2-19.8
	C98.2,83.7,85.3,76.1,85.3,76.1z"/>
<path class="st3" d="M82.1,61.8h5.2v-5.3h4.4v5.3H97v4.4h-5.3v5.2h-4.4v-5.2h-5.2C82.1,66.2,82.1,61.8,82.1,61.8z M100.6,61.8h5.2
	v-5.3h4.4v5.3h5.3v4.4h-5.3v5.2h-4.4v-5.2h-5.2C100.6,66.2,100.6,61.8,100.6,61.8z"/>
</svg>
