<svg width="103" height="103" viewBox="0 0 103 103" fill="none" xmlns="http://www.w3.org/2000/svg">
<g filter="url(#filter0_d_0_1)">
<mask id="path-1-inside-1_0_1" fill="white">
<path d="M4 0H99V95H4V0Z"/>
</mask>
<path d="M4 0H99V95H4V0Z" fill="#1A1A1A"/>
<path d="M99 90H4V100H99V90Z" fill="#8257E6" mask="url(#path-1-inside-1_0_1)"/>
</g>
<path d="M31.888 22V13.6H34.648C35.304 13.6 35.844 13.708 36.268 13.924C36.692 14.14 37.004 14.432 37.204 14.8C37.412 15.168 37.516 15.584 37.516 16.048C37.516 16.504 37.416 16.916 37.216 17.284C37.016 17.652 36.704 17.948 36.28 18.172C35.856 18.388 35.312 18.496 34.648 18.496H32.896V22H31.888ZM32.896 17.644H34.624C35.296 17.644 35.772 17.504 36.052 17.224C36.34 16.936 36.484 16.544 36.484 16.048C36.484 15.544 36.34 15.152 36.052 14.872C35.772 14.584 35.296 14.44 34.624 14.44H32.896V17.644ZM39.4252 24.64L40.9012 21.424H40.5532L38.1892 16.048H39.2812L41.2492 20.68L43.3372 16.048H44.3812L40.4812 24.64H39.4252ZM47.7972 22C47.2532 22 46.8252 21.868 46.5132 21.604C46.2012 21.34 46.0452 20.864 46.0452 20.176V16.9H45.0132V16.048H46.0452L46.1772 14.62H47.0532V16.048H48.8052V16.9H47.0532V20.176C47.0532 20.552 47.1292 20.808 47.2812 20.944C47.4332 21.072 47.7012 21.136 48.0852 21.136H48.7092V22H47.7972ZM50.0858 22V13.36H51.0938V17.068C51.2938 16.7 51.5778 16.416 51.9458 16.216C52.3138 16.008 52.7138 15.904 53.1458 15.904C53.8338 15.904 54.3858 16.12 54.8018 16.552C55.2178 16.976 55.4258 17.632 55.4258 18.52V22H54.4298V18.628C54.4298 17.388 53.9298 16.768 52.9298 16.768C52.4098 16.768 51.9738 16.956 51.6218 17.332C51.2698 17.7 51.0938 18.228 51.0938 18.916V22H50.0858ZM59.665 22.144C59.105 22.144 58.601 22.016 58.153 21.76C57.705 21.504 57.349 21.144 57.085 20.68C56.829 20.208 56.701 19.656 56.701 19.024C56.701 18.392 56.833 17.844 57.097 17.38C57.361 16.908 57.717 16.544 58.165 16.288C58.621 16.032 59.129 15.904 59.689 15.904C60.249 15.904 60.753 16.032 61.201 16.288C61.649 16.544 62.001 16.908 62.257 17.38C62.521 17.844 62.653 18.392 62.653 19.024C62.653 19.656 62.521 20.208 62.257 20.68C61.993 21.144 61.633 21.504 61.177 21.76C60.729 22.016 60.225 22.144 59.665 22.144ZM59.665 21.28C60.009 21.28 60.329 21.196 60.625 21.028C60.921 20.86 61.161 20.608 61.345 20.272C61.529 19.936 61.621 19.52 61.621 19.024C61.621 18.528 61.529 18.112 61.345 17.776C61.169 17.44 60.933 17.188 60.637 17.02C60.341 16.852 60.025 16.768 59.689 16.768C59.345 16.768 59.025 16.852 58.729 17.02C58.433 17.188 58.193 17.44 58.009 17.776C57.825 18.112 57.733 18.528 57.733 19.024C57.733 19.52 57.825 19.936 58.009 20.272C58.193 20.608 58.429 20.86 58.717 21.028C59.013 21.196 59.329 21.28 59.665 21.28ZM64.0546 22V16.048H64.9666L65.0266 17.116C65.2186 16.74 65.4946 16.444 65.8546 16.228C66.2146 16.012 66.6226 15.904 67.0786 15.904C67.7826 15.904 68.3426 16.12 68.7586 16.552C69.1826 16.976 69.3946 17.632 69.3946 18.52V22H68.3866V18.628C68.3866 17.388 67.8746 16.768 66.8506 16.768C66.3386 16.768 65.9106 16.956 65.5666 17.332C65.2306 17.7 65.0626 18.228 65.0626 18.916V22H64.0546Z" fill="#8257E6"/>
<defs>
<filter id="filter0_d_0_1" x="0" y="0" width="103" height="103" filterUnits="userSpaceOnUse" color-interpolation-filters="sRGB">
<feFlood flood-opacity="0" result="BackgroundImageFix"/>
<feColorMatrix in="SourceAlpha" type="matrix" values="0 0 0 0 0 0 0 0 0 0 0 0 0 0 0 0 0 0 127 0" result="hardAlpha"/>
<feOffset dy="4"/>
<feGaussianBlur stdDeviation="2"/>
<feComposite in2="hardAlpha" operator="out"/>
<feColorMatrix type="matrix" values="0 0 0 0 0 0 0 0 0 0 0 0 0 0 0 0 0 0 0.25 0"/>
<feBlend mode="normal" in2="BackgroundImageFix" result="effect1_dropShadow_0_1"/>
<feBlend mode="normal" in="SourceGraphic" in2="effect1_dropShadow_0_1" result="shape"/>
</filter>
</defs>
</svg>
